# xmcd
#
# Track frame offsets:
# 150
# 20704
# 41501
# 56775
# 75268
# 95133
# 116616
# 136011
# 152257
# 164779
# 193282
# 212941
# 250699
# 269549
# 287123
# 306858
# 325116
#
# Disc length: 4583 seconds
#
#
# Revision: 0
# Processed by: cddbd v1.4PL0 Copyright (c) Steve Scherf et al.
# Submitted via: FreeRIP 2.40 
#
DISCID=f611e511
DTITLE=JimmyDan - Lextant Greatest Hits
DYEAR=1900
DGENRE=Acid Punk
TTITLE0=Tyler Hunts Wild Turkeys
TTITLE1=Missy Gets Lost in Kmart
TTITLE2=The Tone Dismounts
TTITLE3=Well Well
TTITLE4=The Client Strikes Back
TTITLE5=Data McNuggets
TTITLE6=Jimmy Dan Races On
TTITLE7=Kim's Nationwide Disco Hour
TTITLE8=Too Far Gyro
TTITLE9=Troy Speaks
TTITLE10=Smoothie King Blues
TTITLE11=Vicki's Margs
TTITLE12=Last One to Go Home
TTITLE13=Memories of Lolita
TTITLE14=Microsoft Dancehall Blues
TTITLE15=Gone Shoppin' - Sharon Remix
TTITLE16=Everyone Was Kung Fu Fighting
EXTD=
EXTT0=
EXTT1=
EXTT2=
EXTT3=
EXTT4=
EXTT5=
EXTT6=
EXTT7=
EXTT8=
EXTT9=
EXTT10=
EXTT11=
EXTT12=
EXTT13=
EXTT14=
EXTT15=
EXTT16=
PLAYORDER=
